# xmcd CD database file
#
# Track frame offsets:
#	182
#	15867
#	38135
#	48257
#	64760
#	88780
#	113267
#	128345
#	142557
#	160965
#
# Disc length: 2358 seconds
#
# Revision: 2
# Processed by: cddbd v1.4b41PL1 Copyright (c) Steve Scherf et al.
# Submitted via: Feurio! 1.50.2ß - http://www.feurio.com
#
DISCID=6609340a
DTITLE=Nasi e Os Irmãos do Blues - Uma Noite Com... Nasi e Os Irmãos do Blues
DYEAR=1900
DGENRE=
TTITLE0=Gangster do Amor
TTITLE1=Sofre
TTITLE2=Rebel Dog Blues
TTITLE3=Blues do Assobio
TTITLE4=Má Sorte
TTITLE5=I Put a Spell on You
TTITLE6=Suzie Q
TTITLE7=Eu Tenho Quase Tudo
TTITLE8=Honest I Do
TTITLE9=Baby, What You Want Me To Do
EXTD=
EXTT0=
EXTT1=
EXTT2=
EXTT3=
EXTT4=
EXTT5=
EXTT6=
EXTT7=
EXTT8=
EXTT9=
PLAYORDER=
